<svg xmlns="http://www.w3.org/2000/svg" viewBox="0 0 135.22 40"><defs><style>.cls-1{fill:#6191f2;}.cls-2{fill:#3b3ff5;}</style></defs><g id="Layer_2" data-name="Layer 2"><g id="Layer_1-2" data-name="Layer 1"><path d="M69.22,30.83A1.85,1.85,0,0,1,67.37,29V4.11a1.85,1.85,0,1,1,3.69,0V29A1.85,1.85,0,0,1,69.22,30.83Z"/><path d="M83.16,30.83c-5.34,0-9.68-4.65-9.68-10.37s4.34-10.37,9.68-10.37,9.67,4.65,9.67,10.37S88.49,30.83,83.16,30.83Zm0-17c-3.3,0-6,3-6,6.68s2.69,6.68,6,6.68,6-3,6-6.68S86.46,13.78,83.16,13.78Z"/><path d="M104.35,30.83c-5.33,0-9.67-4.65-9.67-10.37S99,10.09,104.35,10.09,114,14.74,114,20.46,109.69,30.83,104.35,30.83Zm0-17c-3.3,0-6,3-6,6.68s2.69,6.68,6,6.68,6-3,6-6.68S107.65,13.78,104.35,13.78Z"/><path d="M125.54,10.09c-5.2,0-9.46,4.44-9.66,10,0,.13,0,.27,0,.41V35.89a1.84,1.84,0,1,0,3.68,0v-7.3a9.2,9.2,0,0,0,6,2.24c5.34,0,9.68-4.66,9.68-10.37S130.88,10.09,125.54,10.09Zm0,17.05c-3.3,0-6-3-6-6.68s2.69-6.68,6-6.68,6,3,6,6.68S128.85,27.14,125.54,27.14Z"/><path class="cls-1" d="M27.71,35.56a20,20,0,0,1-2.15-1.14c-.37-.23-.73-.47-1.09-.73a18.55,18.55,0,0,1-5.41-6.1,19.26,19.26,0,0,1-.86-1.77,18.59,18.59,0,1,1,28.06,7.84h0a18.55,18.55,0,0,1-6.28,3h0l-.55.14a18.52,18.52,0,0,1-8.15,0c-.43-.1-.85-.21-1.27-.33A19.69,19.69,0,0,1,27.71,35.56Z"/><path class="cls-2" d="M16.47,25.76a3.71,3.71,0,0,0,4.79,2.16L34.18,23a3.68,3.68,0,0,1,2.88.11,1.24,1.24,0,0,1,.2.1A3.72,3.72,0,0,1,39,27.77a1.89,1.89,0,0,1-.09.21,3.69,3.69,0,0,1-2.08,2L29.36,32.8a3.71,3.71,0,0,0-2.25,2.48,3.57,3.57,0,0,0,.1,2.32A3.71,3.71,0,0,0,32,39.76L41.94,36a18.82,18.82,0,0,0,4.25-2.28,18.61,18.61,0,0,0,7.51-18.1,19.13,19.13,0,0,0-1-3.61,18.6,18.6,0,0,0-24-10.79L16.82,5.74a3.73,3.73,0,0,0,.82,7.17h0a3.58,3.58,0,0,0,1.82-.21L31.38,8.17a3.72,3.72,0,1,1,2.64,7L18.62,21A3.71,3.71,0,0,0,16.47,25.76Z"/><circle class="cls-2" cx="7.17" cy="13.71" r="3.72"/><circle class="cls-2" cx="9.18" cy="28.82" r="3.72"/><circle class="cls-2" cx="9.09" cy="28.85" r="3.72"/><circle class="cls-2" cx="9" cy="28.89" r="3.72"/><circle class="cls-2" cx="8.9" cy="28.93" r="3.72"/><circle class="cls-2" cx="8.81" cy="28.96" r="3.72"/><circle class="cls-2" cx="8.71" cy="29" r="3.72"/><circle class="cls-2" cx="8.62" cy="29.03" r="3.72"/><circle class="cls-2" cx="8.53" cy="29.07" r="3.72"/><circle class="cls-2" cx="8.43" cy="29.1" r="3.72"/><circle class="cls-2" cx="8.34" cy="29.14" r="3.72"/><circle class="cls-2" cx="8.24" cy="29.18" r="3.72"/><circle class="cls-2" cx="8.15" cy="29.21" r="3.72"/><circle class="cls-2" cx="8.05" cy="29.25" r="3.72"/><circle class="cls-2" cx="7.96" cy="29.28" r="3.72"/><circle class="cls-2" cx="7.87" cy="29.32" r="3.72"/><circle class="cls-2" cx="7.77" cy="29.35" r="3.72"/><circle class="cls-2" cx="7.68" cy="29.39" r="3.72"/><circle class="cls-2" cx="7.58" cy="29.43" r="3.72"/><circle class="cls-2" cx="7.49" cy="29.46" r="3.72"/><circle class="cls-2" cx="7.39" cy="29.5" r="3.72"/><circle class="cls-2" cx="7.3" cy="29.53" r="3.72"/><circle class="cls-2" cx="7.21" cy="29.57" r="3.72"/><circle class="cls-2" cx="7.11" cy="29.6" r="3.72"/><circle class="cls-2" cx="7.02" cy="29.64" r="3.72"/><circle class="cls-2" cx="6.92" cy="29.68" r="3.72"/><circle class="cls-2" cx="6.83" cy="29.71" r="3.72"/><circle class="cls-2" cx="6.73" cy="29.75" r="3.72"/><circle class="cls-2" cx="6.64" cy="29.78" r="3.72"/><circle class="cls-2" cx="6.55" cy="29.82" r="3.72"/><circle class="cls-2" cx="6.45" cy="29.86" r="3.72"/><circle class="cls-2" cx="6.36" cy="29.89" r="3.72"/><circle class="cls-2" cx="6.26" cy="29.93" r="3.72"/><circle class="cls-2" cx="6.17" cy="29.96" r="3.72"/><circle class="cls-2" cx="6.08" cy="30" r="3.72"/><circle class="cls-2" cx="5.98" cy="30.03" r="3.72"/><circle class="cls-2" cx="5.89" cy="30.07" r="3.72"/><circle class="cls-2" cx="5.79" cy="30.11" r="3.72"/><circle class="cls-2" cx="5.7" cy="30.14" r="3.72"/><circle class="cls-2" cx="5.6" cy="30.18" r="3.72"/><circle class="cls-2" cx="5.51" cy="30.21" r="3.72"/><circle class="cls-2" cx="5.42" cy="30.25" r="3.72"/><circle class="cls-2" cx="5.32" cy="30.28" r="3.72"/><circle class="cls-2" cx="5.23" cy="30.32" r="3.72"/><circle class="cls-2" cx="5.13" cy="30.36" r="3.72"/><circle class="cls-2" cx="5.04" cy="30.39" r="3.72"/><circle class="cls-2" cx="4.94" cy="30.43" r="3.72"/><circle class="cls-2" cx="4.85" cy="30.46" r="3.72"/><circle class="cls-2" cx="4.76" cy="30.5" r="3.72"/><circle class="cls-2" cx="4.66" cy="30.53" r="3.72"/><circle class="cls-2" cx="4.57" cy="30.57" r="3.72"/><circle class="cls-2" cx="4.47" cy="30.61" r="3.72"/><circle class="cls-2" cx="4.38" cy="30.64" r="3.72"/><circle class="cls-2" cx="4.29" cy="30.68" r="3.72"/><circle class="cls-2" cx="4.19" cy="30.71" r="3.72"/><circle class="cls-2" cx="4.1" cy="30.75" r="3.72"/><circle class="cls-2" cx="4" cy="30.78" r="3.72"/><circle class="cls-2" cx="3.91" cy="30.82" r="3.72"/><circle class="cls-2" cx="3.81" cy="30.86" r="3.72"/><circle class="cls-2" cx="3.72" cy="30.89" r="3.72"/></g></g></svg>