<?xml version="1.0" encoding="utf-8"?>
<!-- Generator: Adobe Illustrator 26.0.3, SVG Export Plug-In . SVG Version: 6.00 Build 0)  -->
<svg version="1.1" id="Layer_1" xmlns="http://www.w3.org/2000/svg" xmlns:xlink="http://www.w3.org/1999/xlink" x="0px" y="0px"
	 viewBox="0 0 101.4 30" style="enable-background:new 0 0 101.4 30;" xml:space="preserve">
<style type="text/css">
	.st0{fill:#FFFFFF;}
	.st1{fill:#6191F2;}
	.st2{fill:#3B3FF5;}
</style>
<g id="Layer_2_00000061435616109867044220000000808170577284289683_">
	<g id="Layer_1-2">
		<path class="st0" d="M51.9,23.1c-0.8,0-1.4-0.6-1.4-1.4V3.1c-0.1-0.8,0.5-1.4,1.3-1.5c0.8-0.1,1.4,0.5,1.5,1.3c0,0.1,0,0.1,0,0.2
			v18.7C53.3,22.5,52.7,23.1,51.9,23.1z"/>
		<path class="st0" d="M62.4,23.1c-4,0-7.3-3.5-7.3-7.8s3.3-7.8,7.3-7.8s7.3,3.5,7.3,7.8S66.4,23.1,62.4,23.1z M62.4,10.4
			c-2.5,0-4.5,2.2-4.5,5s2,5,4.5,5s4.5-2.2,4.5-5S64.8,10.3,62.4,10.4L62.4,10.4z"/>
		<path class="st0" d="M78.3,23.1c-4,0-7.3-3.5-7.3-7.8s3.2-7.8,7.3-7.8s7.2,3.5,7.2,7.8S82.3,23.1,78.3,23.1z M78.3,10.4
			c-2.5,0-4.5,2.2-4.5,5s2,5,4.5,5s4.5-2.2,4.5-5S80.7,10.3,78.3,10.4L78.3,10.4z"/>
		<path class="st0" d="M94.2,7.6c-3.9,0-7.1,3.3-7.2,7.5c0,0.1,0,0.2,0,0.3v11.5c0,0.8,0.6,1.4,1.4,1.4s1.4-0.6,1.4-1.4v-5.5
			c1.3,1.1,2.8,1.7,4.5,1.7c4,0,7.3-3.5,7.3-7.8S98.2,7.6,94.2,7.6z M94.2,20.4c-2.5,0-4.5-2.2-4.5-5s2-5,4.5-5c2.5,0,4.5,2.2,4.5,5
			S96.6,20.4,94.2,20.4z"/>
		<path class="st1" d="M20.8,26.7c-0.6-0.3-1.1-0.5-1.6-0.9c-0.3-0.2-0.5-0.4-0.8-0.5c-1.7-1.2-3.1-2.8-4.1-4.6
			c-0.2-0.4-0.5-0.9-0.6-1.3c-3-7.1,0.4-15.3,7.5-18.3s15.3,0.4,18.3,7.5c2.5,6,0.6,12.9-4.7,16.7l0,0c-1.4,1-3,1.8-4.7,2.2l0,0
			l-0.4,0.1c-2,0.5-4.1,0.5-6.1,0c-0.3-0.1-0.6-0.2-1-0.2C21.9,27.2,21.3,26.9,20.8,26.7z"/>
		<path class="st2" d="M12.4,19.3c0.5,1.4,2.1,2.2,3.6,1.6c0,0,0,0,0,0l9.7-3.7c0.7-0.3,1.5-0.2,2.2,0.1c0.1,0,0.1,0,0.1,0.1
			c1.2,0.7,1.8,2.1,1.3,3.4c0,0.1,0,0.1-0.1,0.2c-0.3,0.7-0.9,1.2-1.6,1.5L22,24.6c-0.8,0.3-1.5,1-1.7,1.9c-0.2,0.6-0.1,1.2,0.1,1.7
			c0.5,1.4,2.1,2.2,3.6,1.6c0,0,0,0,0,0l7.5-2.8c1.1-0.4,2.2-1,3.2-1.7c4.3-3.1,6.5-8.3,5.6-13.6c-0.2-0.9-0.4-1.8-0.7-2.7
			c-2.7-7.2-10.8-10.8-18-8.1c0,0,0,0,0,0l-8.9,3.4c-1.4,0.6-2.2,2.2-1.6,3.6c0.4,0.9,1.2,1.6,2.2,1.8l0,0c0.5,0.1,0.9,0,1.4-0.2
			l8.9-3.4c1.4-0.5,3.1,0.2,3.6,1.6s-0.2,3.1-1.6,3.6L14,15.7C12.5,16.3,11.8,17.9,12.4,19.3z"/>
		<circle class="st2" cx="5.4" cy="10.3" r="2.8"/>
		<circle class="st2" cx="6.9" cy="21.6" r="2.8"/>
		<circle class="st2" cx="6.8" cy="21.6" r="2.8"/>
		<circle class="st2" cx="6.7" cy="21.7" r="2.8"/>
		<circle class="st2" cx="6.7" cy="21.7" r="2.8"/>
		<circle class="st2" cx="6.6" cy="21.7" r="2.8"/>
		<circle class="st2" cx="6.5" cy="21.7" r="2.8"/>
		<circle class="st2" cx="6.5" cy="21.8" r="2.8"/>
		<circle class="st2" cx="6.4" cy="21.8" r="2.8"/>
		<circle class="st2" cx="6.3" cy="21.8" r="2.8"/>
		<circle class="st2" cx="6.3" cy="21.9" r="2.8"/>
		<circle class="st2" cx="6.2" cy="21.9" r="2.8"/>
		<circle class="st2" cx="6.1" cy="21.9" r="2.8"/>
		<circle class="st2" cx="6" cy="21.9" r="2.8"/>
		<circle class="st2" cx="6" cy="22" r="2.8"/>
		<circle class="st2" cx="5.9" cy="22" r="2.8"/>
		<circle class="st2" cx="5.8" cy="22" r="2.8"/>
		<circle class="st2" cx="5.8" cy="22" r="2.8"/>
		<circle class="st2" cx="5.7" cy="22.1" r="2.8"/>
		<circle class="st2" cx="5.6" cy="22.1" r="2.8"/>
		<circle class="st2" cx="5.5" cy="22.1" r="2.8"/>
		<circle class="st2" cx="5.5" cy="22.1" r="2.8"/>
		<circle class="st2" cx="5.4" cy="22.2" r="2.8"/>
		<circle class="st2" cx="5.3" cy="22.2" r="2.8"/>
		<circle class="st2" cx="5.3" cy="22.2" r="2.8"/>
		<circle class="st2" cx="5.2" cy="22.3" r="2.8"/>
		<circle class="st2" cx="5.1" cy="22.3" r="2.8"/>
		<circle class="st2" cx="5" cy="22.3" r="2.8"/>
		<circle class="st2" cx="5" cy="22.3" r="2.8"/>
		<circle class="st2" cx="4.9" cy="22.4" r="2.8"/>
		<circle class="st2" cx="4.8" cy="22.4" r="2.8"/>
		<circle class="st2" cx="4.8" cy="22.4" r="2.8"/>
		<circle class="st2" cx="4.7" cy="22.4" r="2.8"/>
		<circle class="st2" cx="4.6" cy="22.5" r="2.8"/>
		<circle class="st2" cx="4.6" cy="22.5" r="2.8"/>
		<circle class="st2" cx="4.5" cy="22.5" r="2.8"/>
		<circle class="st2" cx="4.4" cy="22.6" r="2.8"/>
		<circle class="st2" cx="4.3" cy="22.6" r="2.8"/>
		<circle class="st2" cx="4.3" cy="22.6" r="2.8"/>
		<circle class="st2" cx="4.2" cy="22.6" r="2.8"/>
		<circle class="st2" cx="4.1" cy="22.7" r="2.8"/>
		<circle class="st2" cx="4.1" cy="22.7" r="2.8"/>
		<circle class="st2" cx="4" cy="22.7" r="2.8"/>
		<circle class="st2" cx="3.9" cy="22.7" r="2.8"/>
		<circle class="st2" cx="3.8" cy="22.8" r="2.8"/>
		<circle class="st2" cx="3.8" cy="22.8" r="2.8"/>
		<circle class="st2" cx="3.7" cy="22.8" r="2.8"/>
		<circle class="st2" cx="3.6" cy="22.8" r="2.8"/>
		<circle class="st2" cx="3.6" cy="22.9" r="2.8"/>
		<circle class="st2" cx="3.5" cy="22.9" r="2.8"/>
		<circle class="st2" cx="3.4" cy="22.9" r="2.8"/>
		<circle class="st2" cx="3.4" cy="23" r="2.8"/>
		<circle class="st2" cx="3.3" cy="23" r="2.8"/>
		<circle class="st2" cx="3.2" cy="23" r="2.8"/>
		<circle class="st2" cx="3.1" cy="23" r="2.8"/>
		<circle class="st2" cx="3.1" cy="23.1" r="2.8"/>
		<circle class="st2" cx="3" cy="23.1" r="2.8"/>
		<circle class="st2" cx="2.9" cy="23.1" r="2.8"/>
		<circle class="st2" cx="2.9" cy="23.1" r="2.8"/>
		<circle class="st2" cx="2.8" cy="23.2" r="2.8"/>
	</g>
</g>
</svg>
